<?xml version="1.0" standalone="no"?>
<!DOCTYPE svg PUBLIC "-//W3C//DTD SVG 20010904//EN"
 "http://www.w3.org/TR/2001/REC-SVG-20010904/DTD/svg10.dtd">
<svg version="1.0" xmlns="http://www.w3.org/2000/svg"
 width="1600.000000pt" height="1600.000000pt" viewBox="0 0 1600.000000 1600.000000"
 preserveAspectRatio="xMidYMid meet">
<metadata>
Created by potrace 1.14, written by Peter Selinger 2001-2017
</metadata>
<g transform="translate(0.000000,1600.000000) scale(0.100000,-0.100000)"
fill="#000000" stroke="none">
<path d="M2160 13332 l-25 -3 0 -5331 0 -5332 1700 0 c935 -1 1712 1 1727 3
l27 3 0 3617 c0 1989 0 3660 1 3715 l0 98 161 -248 c89 -137 178 -274 198
-304 20 -30 38 -59 41 -65 3 -5 35 -55 71 -110 59 -88 1067 -1638 1441 -2215
215 -331 327 -504 338 -520 5 -8 38 -58 71 -110 34 -52 96 -147 137 -210 80
-123 321 -492 407 -625 90 -138 445 -685 513 -790 36 -55 124 -190 195 -300
72 -110 158 -243 192 -295 34 -52 150 -230 257 -395 107 -165 230 -354 273
-420 43 -66 125 -192 182 -280 57 -88 162 -248 232 -355 l127 -195 1709 2
c941 0 1715 2 1721 2 7 1 10 1549 10 5333 l-1 5332 -1723 0 -1722 1 0 -25 c-1
-14 0 -1688 0 -3720 l1 -3695 -32 50 c-17 28 -51 79 -74 115 -303 468 -416
643 -550 850 -87 135 -181 281 -210 325 -102 157 -536 828 -615 950 -30 47
-158 245 -285 440 -126 195 -240 372 -253 392 -12 21 -83 130 -157 243 -119
183 -232 357 -275 426 -8 13 -123 190 -255 394 -132 203 -293 452 -358 553
-65 100 -149 229 -186 287 -68 105 -176 271 -236 365 -18 28 -80 123 -139 213
-58 90 -106 165 -106 168 0 3 -5 10 -10 17 -6 7 -25 35 -43 62 -18 28 -86 133
-151 235 -66 102 -152 235 -191 295 -40 61 -119 182 -175 270 -57 88 -140 216
-185 285 -45 69 -135 208 -200 310 -65 102 -120 187 -122 189 -4 5 -3413 8
-3453 3z"/>
</g>
</svg>
